<svg width="80" height="83" viewBox="0 0 80 83" fill="none" xmlns="http://www.w3.org/2000/svg">
<path d="M24.1739 0.717224L31.1304 7.5306C33.7391 10.0408 35.1304 13.4475 35.1304 17.2128C35.1304 20.7988 36.5217 24.2055 38.9565 26.7157L39.8261 27.6122L47.8261 0.896508" fill="white"/>
<path d="M0.521744 24.5641L10.087 24.2055C13.5652 24.0262 17.0435 25.4606 19.4783 27.9708C21.913 30.481 25.2174 31.7361 28.6957 31.7361H29.913L17.0435 7.172" fill="white"/>
<path d="M0.521744 58.6311L6.95652 51.4591C9.3913 48.7696 12.6957 47.1559 16.1739 47.1559C19.6522 47.1559 22.7826 45.5422 25.2174 43.032L26.087 42.1355L0 34.4256" fill="white"/>
<path d="M24.1739 82.2987L23.6522 72.4372C23.4783 68.8512 24.6957 65.2652 27.1304 62.5757C29.3913 60.0655 30.7826 56.4795 30.6087 53.0728V51.8177L6.95652 65.6238" fill="white"/>
<path d="M57.2174 81.5815L50.087 75.1267C47.4783 72.7958 45.913 69.3891 45.7391 65.6238C45.5652 62.0378 44 58.8104 41.5652 56.3002L40.6956 55.4037L33.7391 82.478" fill="white"/>
<path d="M79.8261 56.6588L70.2609 57.376C66.7826 57.7346 63.3043 56.4795 60.6956 53.9693C58.0869 51.6384 54.7826 50.3833 51.3043 50.5626H50.087L64 74.5888" fill="white"/>
<path d="M78.2609 22.7711L72.1739 30.3017C69.913 32.9912 66.6087 34.7842 63.1304 34.9635C59.6522 35.1428 56.5217 36.7565 54.2609 39.446L53.5652 40.3425L80 46.7973" fill="white"/>
<path d="M53.7391 0L54.6087 9.8615C54.9565 13.4475 53.9131 17.0335 51.4783 19.9023C49.2174 22.5918 48.1739 25.9985 48.3478 29.5845L48.5217 30.8396L71.4783 15.9577" fill="white"/>
</svg>
