<svg width="70" height="40" viewBox="0 0 70 40" fill="none" xmlns="http://www.w3.org/2000/svg">
<path fill-rule="evenodd" clip-rule="evenodd" d="M45 1C45 0.447715 45.4477 0 46 0H48C48.3344 0 48.6466 0.167101 48.8321 0.4453L50.1654 2.4453C50.3284 2.68988 50.3756 2.99382 50.2944 3.27633C50.2132 3.55883 50.0118 3.79129 49.7437 3.91192L48.3986 4.51721L51.6945 12.6745C53.0509 12.2366 54.4978 12 56 12C63.732 12 70 18.268 70 26C70 33.732 63.732 40 56 40C48.268 40 42 33.732 42 26C42 20.4783 45.1967 15.7031 49.8404 13.4243L48.5469 10.2231L36.0915 26.5897C36.9624 27.1249 37.6126 27.9844 37.874 29H39C39.5523 29 40 29.4477 40 30C40 30.5523 39.5523 31 39 31H37.874C37.4299 32.7252 35.8638 34 34 34C31.7909 34 30 32.2091 30 30C30 28.7728 30.5526 27.6747 31.4226 26.941L27.6567 15.957L25.3917 17.8601C27.0336 20.1538 28 22.964 28 26C28 26.3611 27.9863 26.7191 27.9595 27.0733L30.8401 27.5426C30.4203 28.081 30.1352 28.7297 30.0356 29.4379L27.6664 29.0519C26.2736 35.3163 20.6838 40 14 40C6.26801 40 0 33.732 0 26C0 18.268 6.26801 12 14 12C17.9768 12 21.5663 13.6581 24.1149 16.3207L26.9614 13.929L25.7857 10.5H25C24.8448 10.5 24.6916 10.4639 24.5528 10.3944L23.5528 9.89443C23.0588 9.64744 22.8586 9.04677 23.1056 8.55279C23.3526 8.05881 23.9532 7.85858 24.4472 8.10557L25.2361 8.5H26.5H29C29.5523 8.5 30 8.94771 30 9.5C30 10.0523 29.5523 10.5 29 10.5H27.9L28.6966 12.8235L47.6034 7.8879L46.1839 4.37462C45.9827 3.87657 46.2109 3.30851 46.7007 3.08808L47.8465 2.5725L47.4648 2H46C45.4477 2 45 1.55228 45 1ZM35.7324 29H34C33.4477 29 33 29.4477 33 30C33 30.5523 33.4477 31 34 31H35.7324C35.3866 31.5978 34.7403 32 34 32C32.8954 32 32 31.1046 32 30C32 28.8954 32.8954 28 34 28C34.7403 28 35.3866 28.4022 35.7324 29ZM45.8991 10.3998L34.0269 26.0001L34 26C33.7398 26 33.4854 26.0248 33.2391 26.0723L29.3471 14.7207L45.8991 10.3998ZM14 14C17.3621 14 20.4013 15.3827 22.5799 17.6104L16.402 22.8012C15.7331 22.2981 14.9014 22 14 22C11.7909 22 10 23.7909 10 26C10 28.2091 11.7909 30 14 30C15.7037 30 17.1586 28.9349 17.7352 27.4342L25.6882 28.7297C24.4524 34.042 19.6884 38 14 38C7.37258 38 2 32.6274 2 26C2 19.3726 7.37258 14 14 14ZM23.855 19.1513L17.6512 24.3639C17.8029 24.7019 17.909 25.0648 17.9618 25.4447L25.9769 26.7504C25.9922 26.5022 26 26.252 26 26C26 23.4541 25.2072 21.0934 23.855 19.1513ZM14 24C14.2786 24 14.5439 24.057 14.7849 24.1599L13.6687 25.0978C13.0139 25.6479 13.3071 26.7129 14.1512 26.8504L15.6719 27.0981C15.3143 27.6414 14.699 28 14 28C12.8954 28 12 27.1046 12 26C12 24.8954 12.8954 24 14 24ZM50.5921 15.2848C46.6813 17.2624 44 21.3181 44 26C44 32.6274 49.3726 38 56 38C62.6274 38 68 32.6274 68 26C68 19.3726 62.6274 14 56 14C54.7627 14 53.5692 14.1872 52.4462 14.535L55.4761 22.034C55.6476 22.0116 55.8224 22 56 22C58.2091 22 60 23.7909 60 26C60 28.2091 58.2091 30 56 30C53.7909 30 52 28.2091 52 26C52 24.6816 52.6379 23.5121 53.6218 22.7834L50.5921 15.2848ZM55.0728 26.3746L54.4239 24.7686C54.1583 25.1081 54 25.5356 54 26C54 27.1046 54.8954 28 56 28C57.1046 28 58 27.1046 58 26C58 24.9898 57.2511 24.1546 56.2782 24.0192L56.9272 25.6254C57.1341 26.1374 56.8867 26.7203 56.3746 26.9272C55.8625 27.1341 55.2797 26.8867 55.0728 26.3746Z" fill="black"/>
</svg>
