<svg width="208" height="209" viewBox="0 0 208 209" fill="none" xmlns="http://www.w3.org/2000/svg">
<path d="M137.877 98.7419V90.6409H141.927V77.8412H158.615V105.992H195.354V117.779H188.67V125.88H195.354V137.708H185.673C183.85 130.012 176.883 124.22 168.62 124.22C160.357 124.22 153.431 130.012 151.608 137.708H141.927V98.7419H137.877Z" fill="#FEC700"/>
<path d="M175.465 69.7402H141.927V49.6901H26.1632V66.2972H34.2643V57.7911H133.826V90.6003H141.927V77.8007H158.615V105.952H195.354V117.739H188.67V125.84H195.354V137.708H185.673C183.85 130.012 176.883 124.22 168.62 124.22C160.357 124.22 153.431 130.012 151.608 137.708H141.927V98.7419H133.826V137.708H85.2603C83.4376 130.012 76.4707 124.22 68.2076 124.22C59.9446 124.22 53.0182 130.012 51.1954 137.708H34.2643V123.045H26.1632V145.809H51.1549C52.9777 153.505 59.9446 159.297 68.2076 159.297C76.4707 159.297 83.4376 153.545 85.2603 145.809H151.608C153.431 153.505 160.398 159.297 168.661 159.297C176.924 159.297 183.891 153.545 185.713 145.809H203.455V100.362L175.465 69.7402ZM166.716 97.8913V77.8412H171.861L190.209 97.8913H166.716ZM68.2076 151.196C63.023 151.196 58.7699 146.984 58.7699 141.758C58.7699 136.574 62.9825 132.321 68.2076 132.321C73.4328 132.321 77.6454 136.533 77.6454 141.758C77.6454 146.943 73.4328 151.196 68.2076 151.196ZM168.661 151.196C163.476 151.196 159.223 146.984 159.223 141.758C159.223 136.574 163.435 132.321 168.661 132.321C173.845 132.321 178.098 136.533 178.098 141.758C178.058 146.943 173.845 151.196 168.661 151.196Z" fill="#4D5152"/>
<path d="M72.258 137.708H64.157V145.809H72.258V137.708Z" fill="#4D5152"/>
<path d="M172.711 137.708H164.61V145.809H172.711V137.708Z" fill="#4D5152"/>
<path d="M47.1853 90.6408H20.3708V98.7419H47.1853V90.6408Z" fill="#4D5152"/>
<path d="M12.2697 90.6408H4.1687V98.7419H12.2697V90.6408Z" fill="#4D5152"/>
<path d="M69.1797 74.4387H42.3652V82.5397H69.1797V74.4387Z" fill="#4D5152"/>
<path d="M34.2643 74.4387H26.1632V82.5397H34.2643V74.4387Z" fill="#4D5152"/>
<path d="M69.1797 106.843H42.3652V114.944H69.1797V106.843Z" fill="#4D5152"/>
<path d="M34.2643 106.843H26.1632V114.944H34.2643V106.843Z" fill="#4D5152"/>
</svg>
